<mxfile host="app.diagrams.net" modified="2022-10-26T16:21:27.514Z" agent="5.0 (Macintosh; Intel Mac OS X 10_15_7) AppleWebKit/537.36 (KHTML, like Gecko) Chrome/104.0.5112.102 Safari/537.36 OPR/90.0.4480.117" etag="MRvkO-qmBpOfKZT0id21" version="20.5.1" type="github">
  <diagram name="Page-1" id="0783ab3e-0a74-02c8-0abd-f7b4e66b4bec">
    <mxGraphModel dx="1919" dy="783" grid="1" gridSize="10" guides="1" tooltips="1" connect="1" arrows="1" fold="1" page="1" pageScale="1" pageWidth="850" pageHeight="1100" background="none" math="0" shadow="0">
      <root>
        <mxCell id="0" />
        <mxCell id="1" parent="0" />
        <mxCell id="1c1d494c118603dd-1" value="Pool" style="swimlane;html=1;childLayout=stackLayout;startSize=20;rounded=0;shadow=0;comic=0;labelBackgroundColor=none;strokeWidth=1;fontFamily=Verdana;fontSize=12;align=center;" parent="1" vertex="1">
          <mxGeometry x="-500" y="20" width="1340" height="1270" as="geometry" />
        </mxCell>
        <mxCell id="1c1d494c118603dd-2" value="Lane 1" style="swimlane;html=1;startSize=20;" parent="1c1d494c118603dd-1" vertex="1">
          <mxGeometry y="20" width="440" height="1250" as="geometry" />
        </mxCell>
        <mxCell id="1c1d494c118603dd-7" value="A" style="rounded=1;whiteSpace=wrap;html=1;shadow=0;comic=0;labelBackgroundColor=none;strokeWidth=1;fontFamily=Verdana;fontSize=12;align=center;arcSize=50;" parent="1c1d494c118603dd-2" vertex="1">
          <mxGeometry x="30" y="420" width="30" height="20" as="geometry" />
        </mxCell>
        <mxCell id="1c1d494c118603dd-35" style="edgeStyle=none;rounded=0;html=1;labelBackgroundColor=none;startArrow=none;startFill=0;startSize=5;endArrow=classicThin;endFill=1;endSize=5;jettySize=auto;orthogonalLoop=1;strokeWidth=1;fontFamily=Verdana;fontSize=12" parent="1c1d494c118603dd-2" source="1c1d494c118603dd-10" target="1c1d494c118603dd-7" edge="1">
          <mxGeometry relative="1" as="geometry" />
        </mxCell>
        <mxCell id="5KNi4qouuiM3pBmb8lXh-45" style="edgeStyle=orthogonalEdgeStyle;rounded=0;orthogonalLoop=1;jettySize=auto;html=1;exitX=0.5;exitY=1;exitDx=0;exitDy=0;entryX=0.5;entryY=0;entryDx=0;entryDy=0;" edge="1" parent="1c1d494c118603dd-2" source="1c1d494c118603dd-10" target="5KNi4qouuiM3pBmb8lXh-16">
          <mxGeometry relative="1" as="geometry" />
        </mxCell>
        <mxCell id="1c1d494c118603dd-10" value="rock" style="rounded=0;whiteSpace=wrap;html=1;shadow=0;comic=0;labelBackgroundColor=none;strokeWidth=1;fontFamily=Verdana;fontSize=12;align=center;arcSize=50;" parent="1c1d494c118603dd-2" vertex="1">
          <mxGeometry x="110" y="310" width="70" height="30" as="geometry" />
        </mxCell>
        <mxCell id="1c1d494c118603dd-6" value="choice A" style="rounded=1;whiteSpace=wrap;html=1;shadow=0;comic=0;labelBackgroundColor=none;strokeWidth=1;fontFamily=Verdana;fontSize=12;align=center;arcSize=50;" parent="1c1d494c118603dd-2" vertex="1">
          <mxGeometry x="180" y="250" width="100" height="30" as="geometry" />
        </mxCell>
        <mxCell id="1c1d494c118603dd-34" style="edgeStyle=none;rounded=0;html=1;labelBackgroundColor=none;startArrow=none;startFill=0;startSize=5;endArrow=classicThin;endFill=1;endSize=5;jettySize=auto;orthogonalLoop=1;strokeWidth=1;fontFamily=Verdana;fontSize=12" parent="1c1d494c118603dd-2" source="1c1d494c118603dd-6" target="1c1d494c118603dd-10" edge="1">
          <mxGeometry relative="1" as="geometry" />
        </mxCell>
        <mxCell id="5KNi4qouuiM3pBmb8lXh-16" value="B" style="rounded=1;whiteSpace=wrap;html=1;shadow=0;comic=0;labelBackgroundColor=none;strokeWidth=1;fontFamily=Verdana;fontSize=12;align=center;arcSize=50;" vertex="1" parent="1c1d494c118603dd-2">
          <mxGeometry x="130" y="420" width="30" height="20" as="geometry" />
        </mxCell>
        <mxCell id="5KNi4qouuiM3pBmb8lXh-17" value="C" style="rounded=1;whiteSpace=wrap;html=1;shadow=0;comic=0;labelBackgroundColor=none;strokeWidth=1;fontFamily=Verdana;fontSize=12;align=center;arcSize=50;" vertex="1" parent="1c1d494c118603dd-2">
          <mxGeometry x="230" y="420" width="30" height="20" as="geometry" />
        </mxCell>
        <mxCell id="5KNi4qouuiM3pBmb8lXh-48" value="" style="endArrow=classic;html=1;rounded=0;exitX=0.75;exitY=1;exitDx=0;exitDy=0;entryX=0.5;entryY=0;entryDx=0;entryDy=0;" edge="1" parent="1c1d494c118603dd-2" source="1c1d494c118603dd-10" target="5KNi4qouuiM3pBmb8lXh-17">
          <mxGeometry width="50" height="50" relative="1" as="geometry">
            <mxPoint x="200" y="390" as="sourcePoint" />
            <mxPoint x="250" y="340" as="targetPoint" />
          </mxGeometry>
        </mxCell>
        <mxCell id="5KNi4qouuiM3pBmb8lXh-74" style="edgeStyle=orthogonalEdgeStyle;rounded=0;orthogonalLoop=1;jettySize=auto;html=1;exitX=1;exitY=0.25;exitDx=0;exitDy=0;entryX=0.5;entryY=0;entryDx=0;entryDy=0;" edge="1" parent="1c1d494c118603dd-2" source="5KNi4qouuiM3pBmb8lXh-51" target="5KNi4qouuiM3pBmb8lXh-61">
          <mxGeometry relative="1" as="geometry" />
        </mxCell>
        <mxCell id="5KNi4qouuiM3pBmb8lXh-75" style="edgeStyle=orthogonalEdgeStyle;rounded=0;orthogonalLoop=1;jettySize=auto;html=1;exitX=0;exitY=0.25;exitDx=0;exitDy=0;entryX=0.5;entryY=0;entryDx=0;entryDy=0;" edge="1" parent="1c1d494c118603dd-2" source="5KNi4qouuiM3pBmb8lXh-51" target="5KNi4qouuiM3pBmb8lXh-60">
          <mxGeometry relative="1" as="geometry" />
        </mxCell>
        <mxCell id="5KNi4qouuiM3pBmb8lXh-80" style="edgeStyle=orthogonalEdgeStyle;rounded=0;orthogonalLoop=1;jettySize=auto;html=1;exitX=0.5;exitY=1;exitDx=0;exitDy=0;entryX=0.5;entryY=0;entryDx=0;entryDy=0;" edge="1" parent="1c1d494c118603dd-2" source="5KNi4qouuiM3pBmb8lXh-51" target="5KNi4qouuiM3pBmb8lXh-77">
          <mxGeometry relative="1" as="geometry" />
        </mxCell>
        <mxCell id="5KNi4qouuiM3pBmb8lXh-97" style="edgeStyle=orthogonalEdgeStyle;rounded=0;orthogonalLoop=1;jettySize=auto;html=1;exitX=0.5;exitY=1;exitDx=0;exitDy=0;entryX=0.5;entryY=0;entryDx=0;entryDy=0;" edge="1" parent="1c1d494c118603dd-2" source="5KNi4qouuiM3pBmb8lXh-51" target="5KNi4qouuiM3pBmb8lXh-95">
          <mxGeometry relative="1" as="geometry" />
        </mxCell>
        <mxCell id="5KNi4qouuiM3pBmb8lXh-51" value="cave" style="rounded=0;whiteSpace=wrap;html=1;shadow=0;comic=0;labelBackgroundColor=none;strokeWidth=1;fontFamily=Verdana;fontSize=12;align=center;arcSize=50;" vertex="1" parent="1c1d494c118603dd-2">
          <mxGeometry x="150" y="570" width="70" height="30" as="geometry" />
        </mxCell>
        <mxCell id="5KNi4qouuiM3pBmb8lXh-58" style="edgeStyle=orthogonalEdgeStyle;rounded=0;orthogonalLoop=1;jettySize=auto;html=1;exitX=1;exitY=0.5;exitDx=0;exitDy=0;entryX=1;entryY=0.5;entryDx=0;entryDy=0;" edge="1" parent="1c1d494c118603dd-2" source="5KNi4qouuiM3pBmb8lXh-53" target="1c1d494c118603dd-10">
          <mxGeometry relative="1" as="geometry" />
        </mxCell>
        <mxCell id="5KNi4qouuiM3pBmb8lXh-53" value="else" style="rounded=1;whiteSpace=wrap;html=1;shadow=0;comic=0;labelBackgroundColor=none;strokeWidth=1;fontFamily=Verdana;fontSize=12;align=center;arcSize=50;" vertex="1" parent="1c1d494c118603dd-2">
          <mxGeometry x="240" y="350" width="40" height="30" as="geometry" />
        </mxCell>
        <mxCell id="5KNi4qouuiM3pBmb8lXh-57" value="" style="endArrow=classic;html=1;rounded=0;exitX=1;exitY=1;exitDx=0;exitDy=0;entryX=0;entryY=0.5;entryDx=0;entryDy=0;" edge="1" parent="1c1d494c118603dd-2" source="1c1d494c118603dd-10" target="5KNi4qouuiM3pBmb8lXh-53">
          <mxGeometry width="50" height="50" relative="1" as="geometry">
            <mxPoint x="400" y="490" as="sourcePoint" />
            <mxPoint x="450" y="440" as="targetPoint" />
          </mxGeometry>
        </mxCell>
        <mxCell id="5KNi4qouuiM3pBmb8lXh-69" style="edgeStyle=orthogonalEdgeStyle;rounded=0;orthogonalLoop=1;jettySize=auto;html=1;" edge="1" parent="1c1d494c118603dd-2" source="5KNi4qouuiM3pBmb8lXh-60" target="5KNi4qouuiM3pBmb8lXh-68">
          <mxGeometry relative="1" as="geometry" />
        </mxCell>
        <mxCell id="5KNi4qouuiM3pBmb8lXh-60" value="Yes" style="rounded=1;whiteSpace=wrap;html=1;shadow=0;comic=0;labelBackgroundColor=none;strokeWidth=1;fontFamily=Verdana;fontSize=12;align=center;arcSize=50;fillStyle=auto;dashed=1;" vertex="1" parent="1c1d494c118603dd-2">
          <mxGeometry x="35" y="600" width="40" height="30" as="geometry" />
        </mxCell>
        <mxCell id="5KNi4qouuiM3pBmb8lXh-71" value="" style="edgeStyle=orthogonalEdgeStyle;rounded=0;orthogonalLoop=1;jettySize=auto;html=1;" edge="1" parent="1c1d494c118603dd-2" source="5KNi4qouuiM3pBmb8lXh-61" target="5KNi4qouuiM3pBmb8lXh-70">
          <mxGeometry relative="1" as="geometry" />
        </mxCell>
        <mxCell id="5KNi4qouuiM3pBmb8lXh-61" value="No" style="rounded=1;whiteSpace=wrap;html=1;shadow=0;comic=0;labelBackgroundColor=none;strokeWidth=1;fontFamily=Verdana;fontSize=12;align=center;arcSize=50;dashed=1;" vertex="1" parent="1c1d494c118603dd-2">
          <mxGeometry x="260" y="600" width="40" height="30" as="geometry" />
        </mxCell>
        <mxCell id="5KNi4qouuiM3pBmb8lXh-67" value="" style="endArrow=classic;html=1;rounded=0;entryX=0.5;entryY=0;entryDx=0;entryDy=0;exitX=0.5;exitY=1;exitDx=0;exitDy=0;" edge="1" parent="1c1d494c118603dd-2" source="5KNi4qouuiM3pBmb8lXh-17" target="5KNi4qouuiM3pBmb8lXh-51">
          <mxGeometry width="50" height="50" relative="1" as="geometry">
            <mxPoint x="230" y="520" as="sourcePoint" />
            <mxPoint x="280" y="470" as="targetPoint" />
          </mxGeometry>
        </mxCell>
        <mxCell id="5KNi4qouuiM3pBmb8lXh-68" value="+1glock" style="rounded=1;whiteSpace=wrap;html=1;shadow=0;comic=0;labelBackgroundColor=none;strokeWidth=1;fontFamily=Verdana;fontSize=12;align=center;arcSize=50;fillStyle=auto;dashed=1;" vertex="1" parent="1c1d494c118603dd-2">
          <mxGeometry x="-45" y="600" width="60" height="30" as="geometry" />
        </mxCell>
        <mxCell id="5KNi4qouuiM3pBmb8lXh-94" style="edgeStyle=orthogonalEdgeStyle;rounded=0;orthogonalLoop=1;jettySize=auto;html=1;exitX=0.25;exitY=1;exitDx=0;exitDy=0;" edge="1" parent="1c1d494c118603dd-2" source="5KNi4qouuiM3pBmb8lXh-70">
          <mxGeometry relative="1" as="geometry">
            <mxPoint x="360" y="645" as="targetPoint" />
          </mxGeometry>
        </mxCell>
        <mxCell id="5KNi4qouuiM3pBmb8lXh-70" value="0 glock" style="rounded=1;whiteSpace=wrap;html=1;shadow=0;comic=0;labelBackgroundColor=none;strokeWidth=1;fontFamily=Verdana;fontSize=12;align=center;arcSize=50;dashed=1;" vertex="1" parent="1c1d494c118603dd-2">
          <mxGeometry x="330" y="600" width="60" height="30" as="geometry" />
        </mxCell>
        <mxCell id="5KNi4qouuiM3pBmb8lXh-76" value="A" style="rounded=1;whiteSpace=wrap;html=1;shadow=0;comic=0;labelBackgroundColor=none;strokeWidth=1;fontFamily=Verdana;fontSize=12;align=center;arcSize=50;" vertex="1" parent="1c1d494c118603dd-2">
          <mxGeometry y="720" width="30" height="20" as="geometry" />
        </mxCell>
        <mxCell id="5KNi4qouuiM3pBmb8lXh-104" style="edgeStyle=orthogonalEdgeStyle;rounded=0;orthogonalLoop=1;jettySize=auto;html=1;exitX=0.5;exitY=1;exitDx=0;exitDy=0;" edge="1" parent="1c1d494c118603dd-2" source="5KNi4qouuiM3pBmb8lXh-77" target="5KNi4qouuiM3pBmb8lXh-103">
          <mxGeometry relative="1" as="geometry" />
        </mxCell>
        <mxCell id="5KNi4qouuiM3pBmb8lXh-77" value="B" style="rounded=1;whiteSpace=wrap;html=1;shadow=0;comic=0;labelBackgroundColor=none;strokeWidth=1;fontFamily=Verdana;fontSize=12;align=center;arcSize=50;" vertex="1" parent="1c1d494c118603dd-2">
          <mxGeometry x="130" y="720" width="30" height="20" as="geometry" />
        </mxCell>
        <mxCell id="5KNi4qouuiM3pBmb8lXh-78" value="C" style="rounded=1;whiteSpace=wrap;html=1;shadow=0;comic=0;labelBackgroundColor=none;strokeWidth=1;fontFamily=Verdana;fontSize=12;align=center;arcSize=50;" vertex="1" parent="1c1d494c118603dd-2">
          <mxGeometry x="270" y="720" width="30" height="20" as="geometry" />
        </mxCell>
        <mxCell id="5KNi4qouuiM3pBmb8lXh-79" style="edgeStyle=none;rounded=0;html=1;labelBackgroundColor=none;startArrow=none;startFill=0;startSize=5;endArrow=classicThin;endFill=1;endSize=5;jettySize=auto;orthogonalLoop=1;strokeWidth=1;fontFamily=Verdana;fontSize=12;exitX=0.143;exitY=1.068;exitDx=0;exitDy=0;exitPerimeter=0;entryX=0.5;entryY=0;entryDx=0;entryDy=0;" edge="1" parent="1c1d494c118603dd-2" source="5KNi4qouuiM3pBmb8lXh-51" target="5KNi4qouuiM3pBmb8lXh-76">
          <mxGeometry relative="1" as="geometry">
            <mxPoint x="151.1942857142858" y="610" as="sourcePoint" />
            <mxPoint x="75.00380952380965" y="690" as="targetPoint" />
          </mxGeometry>
        </mxCell>
        <mxCell id="5KNi4qouuiM3pBmb8lXh-82" value="" style="endArrow=classic;html=1;rounded=0;exitX=0.91;exitY=0.998;exitDx=0;exitDy=0;entryX=0.5;entryY=0;entryDx=0;entryDy=0;exitPerimeter=0;" edge="1" parent="1c1d494c118603dd-2" source="5KNi4qouuiM3pBmb8lXh-51" target="5KNi4qouuiM3pBmb8lXh-78">
          <mxGeometry width="50" height="50" relative="1" as="geometry">
            <mxPoint x="203.75" y="600" as="sourcePoint" />
            <mxPoint x="286.25" y="680" as="targetPoint" />
          </mxGeometry>
        </mxCell>
        <mxCell id="5KNi4qouuiM3pBmb8lXh-90" value="" style="endArrow=classic;html=1;rounded=0;exitX=0.5;exitY=1;exitDx=0;exitDy=0;" edge="1" parent="1c1d494c118603dd-2" source="5KNi4qouuiM3pBmb8lXh-76">
          <mxGeometry width="50" height="50" relative="1" as="geometry">
            <mxPoint x="70" y="790" as="sourcePoint" />
            <mxPoint x="110" y="750" as="targetPoint" />
          </mxGeometry>
        </mxCell>
        <mxCell id="5KNi4qouuiM3pBmb8lXh-91" value="&amp;nbsp;if &amp;gt; 0" style="endArrow=classic;html=1;rounded=0;exitX=0.5;exitY=1;exitDx=0;exitDy=0;entryX=0.25;entryY=0;entryDx=0;entryDy=0;" edge="1" parent="1c1d494c118603dd-2" source="5KNi4qouuiM3pBmb8lXh-68" target="5KNi4qouuiM3pBmb8lXh-77">
          <mxGeometry x="-0.3665" y="-2" width="50" height="50" relative="1" as="geometry">
            <mxPoint x="-70" y="760" as="sourcePoint" />
            <mxPoint x="-20" y="710" as="targetPoint" />
            <mxPoint as="offset" />
          </mxGeometry>
        </mxCell>
        <mxCell id="5KNi4qouuiM3pBmb8lXh-95" value="B" style="rounded=1;whiteSpace=wrap;html=1;shadow=0;comic=0;labelBackgroundColor=none;strokeWidth=1;fontFamily=Verdana;fontSize=12;align=center;arcSize=50;" vertex="1" parent="1c1d494c118603dd-2">
          <mxGeometry x="180" y="720" width="30" height="20" as="geometry" />
        </mxCell>
        <mxCell id="5KNi4qouuiM3pBmb8lXh-100" value="" style="endArrow=classic;html=1;rounded=0;exitX=0.25;exitY=1;exitDx=0;exitDy=0;entryX=0.75;entryY=0;entryDx=0;entryDy=0;" edge="1" parent="1c1d494c118603dd-2" source="5KNi4qouuiM3pBmb8lXh-70" target="5KNi4qouuiM3pBmb8lXh-95">
          <mxGeometry width="50" height="50" relative="1" as="geometry">
            <mxPoint x="260" y="700" as="sourcePoint" />
            <mxPoint x="310" y="650" as="targetPoint" />
          </mxGeometry>
        </mxCell>
        <mxCell id="5KNi4qouuiM3pBmb8lXh-101" value="you have none" style="edgeLabel;html=1;align=center;verticalAlign=middle;resizable=0;points=[];" vertex="1" connectable="0" parent="5KNi4qouuiM3pBmb8lXh-100">
          <mxGeometry x="-0.2568" y="-2" relative="1" as="geometry">
            <mxPoint x="12" y="-2" as="offset" />
          </mxGeometry>
        </mxCell>
        <mxCell id="5KNi4qouuiM3pBmb8lXh-102" value="" style="endArrow=classic;html=1;rounded=0;exitX=0.5;exitY=1;exitDx=0;exitDy=0;" edge="1" parent="1c1d494c118603dd-2" source="5KNi4qouuiM3pBmb8lXh-95">
          <mxGeometry width="50" height="50" relative="1" as="geometry">
            <mxPoint x="190" y="840" as="sourcePoint" />
            <mxPoint x="220" y="930" as="targetPoint" />
          </mxGeometry>
        </mxCell>
        <mxCell id="5KNi4qouuiM3pBmb8lXh-103" value="B" style="rounded=1;whiteSpace=wrap;html=1;shadow=0;comic=0;labelBackgroundColor=none;strokeWidth=1;fontFamily=Verdana;fontSize=12;align=center;arcSize=50;fillStyle=auto;" vertex="1" parent="1c1d494c118603dd-2">
          <mxGeometry x="15" y="900" width="30" height="20" as="geometry" />
        </mxCell>
        <mxCell id="5KNi4qouuiM3pBmb8lXh-111" value="you survived" style="shape=internalStorage;whiteSpace=wrap;html=1;backgroundOutline=1;fillStyle=auto;dx=10;dy=10;" vertex="1" parent="1c1d494c118603dd-2">
          <mxGeometry x="5" y="1080" width="95" height="60" as="geometry" />
        </mxCell>
        <mxCell id="5KNi4qouuiM3pBmb8lXh-116" value="" style="endArrow=classic;html=1;rounded=0;entryX=0.25;entryY=0;entryDx=0;entryDy=0;exitX=0.5;exitY=1;exitDx=0;exitDy=0;" edge="1" parent="1c1d494c118603dd-2" source="5KNi4qouuiM3pBmb8lXh-103" target="5KNi4qouuiM3pBmb8lXh-111">
          <mxGeometry width="50" height="50" relative="1" as="geometry">
            <mxPoint x="100" y="1070" as="sourcePoint" />
            <mxPoint x="150" y="1020" as="targetPoint" />
          </mxGeometry>
        </mxCell>
        <mxCell id="5KNi4qouuiM3pBmb8lXh-125" style="edgeStyle=orthogonalEdgeStyle;rounded=0;orthogonalLoop=1;jettySize=auto;html=1;exitX=0.5;exitY=0;exitDx=0;exitDy=0;entryX=0.75;entryY=0;entryDx=0;entryDy=0;" edge="1" parent="1c1d494c118603dd-2" source="5KNi4qouuiM3pBmb8lXh-123" target="5KNi4qouuiM3pBmb8lXh-51">
          <mxGeometry relative="1" as="geometry" />
        </mxCell>
        <mxCell id="5KNi4qouuiM3pBmb8lXh-123" value="else" style="rounded=1;whiteSpace=wrap;html=1;shadow=0;comic=0;labelBackgroundColor=none;strokeWidth=1;fontFamily=Verdana;fontSize=12;align=center;arcSize=50;" vertex="1" parent="1c1d494c118603dd-2">
          <mxGeometry x="380" y="770" width="40" height="30" as="geometry" />
        </mxCell>
        <mxCell id="5KNi4qouuiM3pBmb8lXh-122" value="" style="endArrow=classic;html=1;rounded=0;exitX=0.75;exitY=1;exitDx=0;exitDy=0;entryX=0;entryY=0.5;entryDx=0;entryDy=0;" edge="1" parent="1c1d494c118603dd-2" source="5KNi4qouuiM3pBmb8lXh-51" target="5KNi4qouuiM3pBmb8lXh-123">
          <mxGeometry width="50" height="50" relative="1" as="geometry">
            <mxPoint x="223.70000000000005" y="609.94" as="sourcePoint" />
            <mxPoint x="260" y="770" as="targetPoint" />
            <Array as="points">
              <mxPoint x="240" y="770" />
            </Array>
          </mxGeometry>
        </mxCell>
        <mxCell id="1c1d494c118603dd-3" value="Lane 2" style="swimlane;html=1;startSize=20;" parent="1c1d494c118603dd-1" vertex="1">
          <mxGeometry x="440" y="20" width="340" height="1250" as="geometry" />
        </mxCell>
        <mxCell id="5KNi4qouuiM3pBmb8lXh-3" style="edgeStyle=orthogonalEdgeStyle;rounded=0;orthogonalLoop=1;jettySize=auto;html=1;exitX=0.5;exitY=0;exitDx=0;exitDy=0;entryX=0.5;entryY=0;entryDx=0;entryDy=0;" edge="1" parent="1c1d494c118603dd-3" source="60571a20871a0731-3" target="5KNi4qouuiM3pBmb8lXh-2">
          <mxGeometry relative="1" as="geometry">
            <Array as="points">
              <mxPoint x="104" y="180" />
              <mxPoint x="104" y="180" />
            </Array>
          </mxGeometry>
        </mxCell>
        <mxCell id="60571a20871a0731-3" value="" style="whiteSpace=wrap;html=1;rounded=0;shadow=0;comic=0;labelBackgroundColor=none;strokeWidth=1;fillColor=#000000;fontFamily=Verdana;fontSize=12;align=center;rotation=0;" parent="1c1d494c118603dd-3" vertex="1">
          <mxGeometry x="30" y="160" width="147" height="10" as="geometry" />
        </mxCell>
        <mxCell id="1c1d494c118603dd-5" value="choice C" style="rounded=1;whiteSpace=wrap;html=1;shadow=0;comic=0;labelBackgroundColor=none;strokeWidth=1;fontFamily=Verdana;fontSize=12;align=center;arcSize=50;" parent="1c1d494c118603dd-3" vertex="1">
          <mxGeometry x="200" y="250" width="100" height="30" as="geometry" />
        </mxCell>
        <mxCell id="1c1d494c118603dd-29" style="edgeStyle=orthogonalEdgeStyle;rounded=0;html=1;exitX=0.75;exitY=1;labelBackgroundColor=none;startArrow=none;startFill=0;startSize=5;endArrow=classicThin;endFill=1;endSize=5;jettySize=auto;orthogonalLoop=1;strokeWidth=1;fontFamily=Verdana;fontSize=12" parent="1c1d494c118603dd-3" source="60571a20871a0731-3" target="1c1d494c118603dd-5" edge="1">
          <mxGeometry relative="1" as="geometry">
            <Array as="points">
              <mxPoint x="140" y="220" />
              <mxPoint x="210" y="220" />
            </Array>
          </mxGeometry>
        </mxCell>
        <mxCell id="5KNi4qouuiM3pBmb8lXh-6" value="" style="edgeStyle=orthogonalEdgeStyle;rounded=0;orthogonalLoop=1;jettySize=auto;html=1;" edge="1" parent="1c1d494c118603dd-3" source="5KNi4qouuiM3pBmb8lXh-2" target="5KNi4qouuiM3pBmb8lXh-4">
          <mxGeometry relative="1" as="geometry" />
        </mxCell>
        <mxCell id="5KNi4qouuiM3pBmb8lXh-2" value="choice B" style="rounded=1;whiteSpace=wrap;html=1;shadow=0;comic=0;labelBackgroundColor=none;strokeWidth=1;fontFamily=Verdana;fontSize=12;align=center;arcSize=50;" vertex="1" parent="1c1d494c118603dd-3">
          <mxGeometry x="53.5" y="250" width="100" height="30" as="geometry" />
        </mxCell>
        <mxCell id="60571a20871a0731-4" value="" style="ellipse;whiteSpace=wrap;html=1;rounded=0;shadow=0;comic=0;labelBackgroundColor=none;strokeWidth=1;fillColor=#000000;fontFamily=Verdana;fontSize=12;align=center;" parent="1c1d494c118603dd-3" vertex="1">
          <mxGeometry x="83.5" y="20" width="40" height="40" as="geometry" />
        </mxCell>
        <mxCell id="60571a20871a0731-8" value="intro" style="rounded=1;whiteSpace=wrap;html=1;shadow=0;comic=0;labelBackgroundColor=none;strokeWidth=1;fontFamily=Verdana;fontSize=12;align=center;arcSize=50;" parent="1c1d494c118603dd-3" vertex="1">
          <mxGeometry x="53.5" y="100" width="100" height="30" as="geometry" />
        </mxCell>
        <mxCell id="1c1d494c118603dd-28" style="edgeStyle=orthogonalEdgeStyle;rounded=0;html=1;entryX=0.5;entryY=0;labelBackgroundColor=none;startArrow=none;startFill=0;startSize=5;endArrow=classicThin;endFill=1;endSize=5;jettySize=auto;orthogonalLoop=1;strokeWidth=1;fontFamily=Verdana;fontSize=12" parent="1c1d494c118603dd-3" source="60571a20871a0731-8" target="60571a20871a0731-3" edge="1">
          <mxGeometry relative="1" as="geometry">
            <Array as="points">
              <mxPoint x="104" y="125" />
            </Array>
          </mxGeometry>
        </mxCell>
        <mxCell id="1c1d494c118603dd-27" style="edgeStyle=orthogonalEdgeStyle;rounded=0;html=1;labelBackgroundColor=none;startArrow=none;startFill=0;startSize=5;endArrow=classicThin;endFill=1;endSize=5;jettySize=auto;orthogonalLoop=1;strokeWidth=1;fontFamily=Verdana;fontSize=12" parent="1c1d494c118603dd-3" source="60571a20871a0731-4" target="60571a20871a0731-8" edge="1">
          <mxGeometry relative="1" as="geometry" />
        </mxCell>
        <mxCell id="5KNi4qouuiM3pBmb8lXh-4" value="dead" style="whiteSpace=wrap;html=1;fontFamily=Verdana;rounded=1;shadow=0;comic=0;labelBackgroundColor=none;strokeWidth=1;arcSize=50;" vertex="1" parent="1c1d494c118603dd-3">
          <mxGeometry x="51.75" y="930" width="103.5" height="30" as="geometry" />
        </mxCell>
        <mxCell id="5KNi4qouuiM3pBmb8lXh-119" value="" style="endArrow=classic;html=1;rounded=0;exitX=1;exitY=0.5;exitDx=0;exitDy=0;" edge="1" parent="1c1d494c118603dd-3" source="5KNi4qouuiM3pBmb8lXh-78">
          <mxGeometry width="50" height="50" relative="1" as="geometry">
            <mxPoint x="50" y="660" as="sourcePoint" />
            <mxPoint x="220" y="460" as="targetPoint" />
          </mxGeometry>
        </mxCell>
        <mxCell id="1c1d494c118603dd-4" value="Lane 3" style="swimlane;html=1;startSize=20;" parent="1c1d494c118603dd-1" vertex="1">
          <mxGeometry x="780" y="20" width="380" height="1250" as="geometry" />
        </mxCell>
        <mxCell id="1c1d494c118603dd-8" value="Action" style="rounded=1;whiteSpace=wrap;html=1;shadow=0;comic=0;labelBackgroundColor=none;strokeWidth=1;fontFamily=Verdana;fontSize=12;align=center;arcSize=50;" parent="1c1d494c118603dd-4" vertex="1">
          <mxGeometry x="143" y="370" width="100" height="30" as="geometry" />
        </mxCell>
        <mxCell id="1c1d494c118603dd-37" style="edgeStyle=none;rounded=0;html=1;labelBackgroundColor=none;startArrow=none;startFill=0;startSize=5;endArrow=classicThin;endFill=1;endSize=5;jettySize=auto;orthogonalLoop=1;strokeWidth=1;fontFamily=Verdana;fontSize=12" parent="1c1d494c118603dd-4" source="1c1d494c118603dd-9" target="1c1d494c118603dd-8" edge="1">
          <mxGeometry relative="1" as="geometry" />
        </mxCell>
        <mxCell id="1c1d494c118603dd-9" value="run" style="rounded=0;whiteSpace=wrap;html=1;shadow=0;comic=0;labelBackgroundColor=none;strokeWidth=1;fontFamily=Verdana;fontSize=12;align=center;arcSize=50;" parent="1c1d494c118603dd-4" vertex="1">
          <mxGeometry x="23" y="310" width="70" height="30" as="geometry" />
        </mxCell>
        <mxCell id="5KNi4qouuiM3pBmb8lXh-13" value="else" style="rounded=1;whiteSpace=wrap;html=1;shadow=0;comic=0;labelBackgroundColor=none;strokeWidth=1;fontFamily=Verdana;fontSize=12;align=center;arcSize=50;" vertex="1" parent="1c1d494c118603dd-4">
          <mxGeometry y="180" width="100" height="30" as="geometry" />
        </mxCell>
        <mxCell id="1c1d494c118603dd-33" style="rounded=0;html=1;labelBackgroundColor=none;startArrow=none;startFill=0;startSize=5;endArrow=classicThin;endFill=1;endSize=5;jettySize=auto;orthogonalLoop=1;strokeWidth=1;fontFamily=Verdana;fontSize=12" parent="1c1d494c118603dd-1" source="1c1d494c118603dd-5" target="1c1d494c118603dd-9" edge="1">
          <mxGeometry relative="1" as="geometry" />
        </mxCell>
        <mxCell id="5KNi4qouuiM3pBmb8lXh-14" style="edgeStyle=orthogonalEdgeStyle;rounded=0;orthogonalLoop=1;jettySize=auto;html=1;exitX=1;exitY=0.75;exitDx=0;exitDy=0;entryX=0;entryY=0.5;entryDx=0;entryDy=0;" edge="1" parent="1c1d494c118603dd-1" source="60571a20871a0731-3" target="5KNi4qouuiM3pBmb8lXh-13">
          <mxGeometry relative="1" as="geometry">
            <Array as="points">
              <mxPoint x="560" y="188" />
              <mxPoint x="560" y="215" />
            </Array>
          </mxGeometry>
        </mxCell>
        <mxCell id="1c1d494c118603dd-30" style="edgeStyle=orthogonalEdgeStyle;rounded=0;html=1;exitX=0.25;exitY=1;entryX=0.5;entryY=0;labelBackgroundColor=none;startArrow=none;startFill=0;startSize=5;endArrow=classicThin;endFill=1;endSize=5;jettySize=auto;orthogonalLoop=1;strokeWidth=1;fontFamily=Verdana;fontSize=12" parent="1c1d494c118603dd-1" source="60571a20871a0731-3" target="1c1d494c118603dd-6" edge="1">
          <mxGeometry relative="1" as="geometry">
            <Array as="points">
              <mxPoint x="317" y="190" />
              <mxPoint x="317" y="230" />
              <mxPoint x="270" y="230" />
              <mxPoint x="270" y="270" />
            </Array>
          </mxGeometry>
        </mxCell>
        <mxCell id="5KNi4qouuiM3pBmb8lXh-15" style="edgeStyle=orthogonalEdgeStyle;rounded=0;orthogonalLoop=1;jettySize=auto;html=1;exitX=1;exitY=0.5;exitDx=0;exitDy=0;entryX=1;entryY=0.5;entryDx=0;entryDy=0;" edge="1" parent="1c1d494c118603dd-1" source="5KNi4qouuiM3pBmb8lXh-13" target="60571a20871a0731-8">
          <mxGeometry relative="1" as="geometry" />
        </mxCell>
        <mxCell id="5KNi4qouuiM3pBmb8lXh-49" style="edgeStyle=orthogonalEdgeStyle;rounded=0;orthogonalLoop=1;jettySize=auto;html=1;exitX=0.5;exitY=1;exitDx=0;exitDy=0;entryX=0;entryY=0.5;entryDx=0;entryDy=0;" edge="1" parent="1c1d494c118603dd-1" source="1c1d494c118603dd-7" target="1c1d494c118603dd-9">
          <mxGeometry relative="1" as="geometry">
            <Array as="points">
              <mxPoint x="45" y="480" />
              <mxPoint x="660" y="480" />
              <mxPoint x="660" y="345" />
            </Array>
          </mxGeometry>
        </mxCell>
        <mxCell id="5KNi4qouuiM3pBmb8lXh-50" style="edgeStyle=orthogonalEdgeStyle;rounded=0;orthogonalLoop=1;jettySize=auto;html=1;exitX=0.5;exitY=1;exitDx=0;exitDy=0;entryX=0.25;entryY=0;entryDx=0;entryDy=0;" edge="1" parent="1c1d494c118603dd-1" source="5KNi4qouuiM3pBmb8lXh-16" target="5KNi4qouuiM3pBmb8lXh-4">
          <mxGeometry relative="1" as="geometry">
            <Array as="points">
              <mxPoint x="110" y="460" />
              <mxPoint x="110" y="950" />
            </Array>
          </mxGeometry>
        </mxCell>
        <mxCell id="5KNi4qouuiM3pBmb8lXh-7" style="edgeStyle=orthogonalEdgeStyle;rounded=0;orthogonalLoop=1;jettySize=auto;html=1;exitX=0.5;exitY=1;exitDx=0;exitDy=0;startArrow=none;" edge="1" parent="1" source="5KNi4qouuiM3pBmb8lXh-114" target="60571a20871a0731-5">
          <mxGeometry relative="1" as="geometry" />
        </mxCell>
        <mxCell id="1c1d494c118603dd-12" value="" style="whiteSpace=wrap;html=1;rounded=0;shadow=0;comic=0;labelBackgroundColor=none;strokeWidth=1;fillColor=#000000;fontFamily=Verdana;fontSize=12;align=center;rotation=0;" parent="1" vertex="1">
          <mxGeometry x="-80" y="1290" width="147" height="10" as="geometry" />
        </mxCell>
        <mxCell id="60571a20871a0731-5" value="" style="shape=mxgraph.bpmn.shape;html=1;verticalLabelPosition=bottom;labelBackgroundColor=#ffffff;verticalAlign=top;perimeter=ellipsePerimeter;outline=end;symbol=terminate;rounded=0;shadow=0;comic=0;strokeWidth=1;fontFamily=Verdana;fontSize=12;align=center;" parent="1" vertex="1">
          <mxGeometry x="-26.5" y="1430" width="40" height="40" as="geometry" />
        </mxCell>
        <mxCell id="5KNi4qouuiM3pBmb8lXh-113" style="edgeStyle=orthogonalEdgeStyle;rounded=0;orthogonalLoop=1;jettySize=auto;html=1;exitX=0.5;exitY=1;exitDx=0;exitDy=0;entryX=0.05;entryY=-0.374;entryDx=0;entryDy=0;entryPerimeter=0;" edge="1" parent="1" source="5KNi4qouuiM3pBmb8lXh-111" target="1c1d494c118603dd-12">
          <mxGeometry relative="1" as="geometry">
            <Array as="points">
              <mxPoint x="-447" y="1270" />
              <mxPoint x="-73" y="1270" />
            </Array>
          </mxGeometry>
        </mxCell>
        <mxCell id="5KNi4qouuiM3pBmb8lXh-114" value="it was a coma?" style="ellipse;whiteSpace=wrap;html=1;fillStyle=auto;" vertex="1" parent="1">
          <mxGeometry x="-51.5" y="1320" width="90" height="60" as="geometry" />
        </mxCell>
        <mxCell id="5KNi4qouuiM3pBmb8lXh-115" value="" style="edgeStyle=orthogonalEdgeStyle;rounded=0;orthogonalLoop=1;jettySize=auto;html=1;exitX=0.5;exitY=1;exitDx=0;exitDy=0;endArrow=none;" edge="1" parent="1" source="1c1d494c118603dd-12" target="5KNi4qouuiM3pBmb8lXh-114">
          <mxGeometry relative="1" as="geometry">
            <mxPoint x="-6.499999999999773" y="1300" as="sourcePoint" />
            <mxPoint x="-6.499999999999773" y="1400" as="targetPoint" />
          </mxGeometry>
        </mxCell>
        <mxCell id="5KNi4qouuiM3pBmb8lXh-117" value="C" style="rounded=1;whiteSpace=wrap;html=1;shadow=0;comic=0;labelBackgroundColor=none;strokeWidth=1;fontFamily=Verdana;fontSize=12;align=center;arcSize=50;fillStyle=auto;" vertex="1" parent="1">
          <mxGeometry x="145" y="430" width="30" height="20" as="geometry" />
        </mxCell>
      </root>
    </mxGraphModel>
  </diagram>
</mxfile>
